<svg width="129" height="40" viewBox="0 0 129 40" fill="none" xmlns="http://www.w3.org/2000/svg">
<path d="M46.462 27.18C45.322 27.18 44.338 26.994 43.51 26.622C42.694 26.238 42.058 25.686 41.602 24.966C41.158 24.234 40.912 23.346 40.864 22.302C40.852 21.786 40.846 21.24 40.846 20.664C40.846 20.076 40.852 19.518 40.864 18.99C40.912 17.97 41.164 17.106 41.62 16.398C42.076 15.69 42.718 15.15 43.546 14.778C44.374 14.406 45.346 14.22 46.462 14.22C47.362 14.22 48.16 14.334 48.856 14.562C49.552 14.778 50.134 15.072 50.602 15.444C51.082 15.816 51.442 16.224 51.682 16.668C51.934 17.112 52.066 17.55 52.078 17.982C52.09 18.09 52.054 18.18 51.97 18.252C51.898 18.324 51.808 18.36 51.7 18.36H49.072C48.94 18.36 48.838 18.342 48.766 18.306C48.706 18.258 48.652 18.192 48.604 18.108C48.52 17.928 48.394 17.742 48.226 17.55C48.07 17.346 47.848 17.172 47.56 17.028C47.284 16.884 46.918 16.812 46.462 16.812C45.778 16.812 45.238 16.992 44.842 17.352C44.458 17.712 44.248 18.288 44.212 19.08C44.176 20.112 44.176 21.156 44.212 22.212C44.248 23.052 44.47 23.658 44.878 24.03C45.286 24.402 45.826 24.588 46.498 24.588C46.954 24.588 47.356 24.51 47.704 24.354C48.064 24.198 48.346 23.958 48.55 23.634C48.754 23.298 48.856 22.872 48.856 22.356V22.014H47.164C47.032 22.014 46.918 21.972 46.822 21.888C46.738 21.792 46.696 21.678 46.696 21.546V20.214C46.696 20.082 46.738 19.974 46.822 19.89C46.918 19.794 47.032 19.746 47.164 19.746H51.7C51.832 19.746 51.94 19.794 52.024 19.89C52.108 19.974 52.15 20.082 52.15 20.214V22.266C52.15 23.298 51.916 24.18 51.448 24.912C50.98 25.644 50.314 26.208 49.45 26.604C48.598 26.988 47.602 27.18 46.462 27.18ZM58.4451 27.18C57.4371 27.18 56.5851 27.018 55.8891 26.694C55.2051 26.37 54.6771 25.908 54.3051 25.308C53.9451 24.696 53.7411 23.97 53.6931 23.13C53.6811 22.89 53.6751 22.62 53.6751 22.32C53.6751 22.008 53.6811 21.738 53.6931 21.51C53.7411 20.658 53.9571 19.932 54.3411 19.332C54.7251 18.732 55.2591 18.27 55.9431 17.946C56.6391 17.622 57.4731 17.46 58.4451 17.46C59.4291 17.46 60.2631 17.622 60.9471 17.946C61.6431 18.27 62.1831 18.732 62.5671 19.332C62.9511 19.932 63.1671 20.658 63.2151 21.51C63.2271 21.738 63.2331 22.008 63.2331 22.32C63.2331 22.62 63.2271 22.89 63.2151 23.13C63.1671 23.97 62.9571 24.696 62.5851 25.308C62.2251 25.908 61.6971 26.37 61.0011 26.694C60.3171 27.018 59.4651 27.18 58.4451 27.18ZM58.4451 24.984C58.9851 24.984 59.3751 24.822 59.6151 24.498C59.8671 24.174 60.0111 23.688 60.0471 23.04C60.0591 22.86 60.0651 22.62 60.0651 22.32C60.0651 22.02 60.0591 21.78 60.0471 21.6C60.0111 20.964 59.8671 20.484 59.6151 20.16C59.3751 19.824 58.9851 19.656 58.4451 19.656C57.9171 19.656 57.5271 19.824 57.2751 20.16C57.0231 20.484 56.8851 20.964 56.8611 21.6C56.8491 21.78 56.8431 22.02 56.8431 22.32C56.8431 22.62 56.8491 22.86 56.8611 23.04C56.8851 23.688 57.0231 24.174 57.2751 24.498C57.5271 24.822 57.9171 24.984 58.4451 24.984Z" fill="black"/>
<path d="M70.3674 27.18C69.2274 27.18 68.2494 26.994 67.4334 26.622C66.6294 26.25 65.9994 25.704 65.5434 24.984C65.0994 24.264 64.8534 23.37 64.8054 22.302C64.7934 21.81 64.7874 21.282 64.7874 20.718C64.7874 20.154 64.7934 19.614 64.8054 19.098C64.8534 18.054 65.1054 17.172 65.5614 16.452C66.0174 15.72 66.6534 15.168 67.4694 14.796C68.2854 14.412 69.2514 14.22 70.3674 14.22C71.1594 14.22 71.8914 14.322 72.5634 14.526C73.2354 14.718 73.8234 15.006 74.3274 15.39C74.8314 15.762 75.2214 16.218 75.4974 16.758C75.7854 17.286 75.9354 17.886 75.9474 18.558C75.9594 18.666 75.9234 18.756 75.8394 18.828C75.7674 18.9 75.6774 18.936 75.5694 18.936H73.1394C72.9834 18.936 72.8634 18.906 72.7794 18.846C72.6954 18.774 72.6234 18.648 72.5634 18.468C72.3954 17.832 72.1194 17.4 71.7354 17.172C71.3634 16.932 70.9014 16.812 70.3494 16.812C69.6894 16.812 69.1674 16.998 68.7834 17.37C68.3994 17.73 68.1894 18.336 68.1534 19.188C68.1174 20.172 68.1174 21.18 68.1534 22.212C68.1894 23.064 68.3994 23.676 68.7834 24.048C69.1674 24.408 69.6894 24.588 70.3494 24.588C70.9014 24.588 71.3694 24.468 71.7534 24.228C72.1374 23.988 72.4074 23.556 72.5634 22.932C72.6114 22.752 72.6774 22.632 72.7614 22.572C72.8574 22.5 72.9834 22.464 73.1394 22.464H75.5694C75.6774 22.464 75.7674 22.5 75.8394 22.572C75.9234 22.644 75.9594 22.734 75.9474 22.842C75.9354 23.514 75.7854 24.12 75.4974 24.66C75.2214 25.188 74.8314 25.644 74.3274 26.028C73.8234 26.4 73.2354 26.688 72.5634 26.892C71.8914 27.084 71.1594 27.18 70.3674 27.18ZM82.0701 27.18C81.0621 27.18 80.2101 27.018 79.5141 26.694C78.8301 26.37 78.3021 25.908 77.9301 25.308C77.5701 24.696 77.3661 23.97 77.3181 23.13C77.3061 22.89 77.3001 22.62 77.3001 22.32C77.3001 22.008 77.3061 21.738 77.3181 21.51C77.3661 20.658 77.5821 19.932 77.9661 19.332C78.3501 18.732 78.8841 18.27 79.5681 17.946C80.2641 17.622 81.0981 17.46 82.0701 17.46C83.0541 17.46 83.8881 17.622 84.5721 17.946C85.2681 18.27 85.8081 18.732 86.1921 19.332C86.5761 19.932 86.7921 20.658 86.8401 21.51C86.8521 21.738 86.8581 22.008 86.8581 22.32C86.8581 22.62 86.8521 22.89 86.8401 23.13C86.7921 23.97 86.5821 24.696 86.2101 25.308C85.8501 25.908 85.3221 26.37 84.6261 26.694C83.9421 27.018 83.0901 27.18 82.0701 27.18ZM82.0701 24.984C82.6101 24.984 83.0001 24.822 83.2401 24.498C83.4921 24.174 83.6361 23.688 83.6721 23.04C83.6841 22.86 83.6901 22.62 83.6901 22.32C83.6901 22.02 83.6841 21.78 83.6721 21.6C83.6361 20.964 83.4921 20.484 83.2401 20.16C83.0001 19.824 82.6101 19.656 82.0701 19.656C81.5421 19.656 81.1521 19.824 80.9001 20.16C80.6481 20.484 80.5101 20.964 80.4861 21.6C80.4741 21.78 80.4681 22.02 80.4681 22.32C80.4681 22.62 80.4741 22.86 80.4861 23.04C80.5101 23.688 80.6481 24.174 80.9001 24.498C81.1521 24.822 81.5421 24.984 82.0701 24.984ZM89.0784 27C88.9464 27 88.8384 26.958 88.7544 26.874C88.6704 26.79 88.6284 26.682 88.6284 26.55V18.09C88.6284 17.97 88.6704 17.868 88.7544 17.784C88.8384 17.688 88.9464 17.64 89.0784 17.64H91.1484C91.2804 17.64 91.3884 17.688 91.4724 17.784C91.5564 17.868 91.5984 17.97 91.5984 18.09V18.81C91.9224 18.438 92.3064 18.15 92.7504 17.946C93.2064 17.742 93.7164 17.64 94.2804 17.64H95.0724C95.1924 17.64 95.2944 17.682 95.3784 17.766C95.4744 17.85 95.5224 17.958 95.5224 18.09V19.944C95.5224 20.064 95.4744 20.172 95.3784 20.268C95.2944 20.352 95.1924 20.394 95.0724 20.394H93.3264C92.8344 20.394 92.4504 20.532 92.1744 20.808C91.9104 21.072 91.7784 21.45 91.7784 21.942V26.55C91.7784 26.682 91.7304 26.79 91.6344 26.874C91.5504 26.958 91.4424 27 91.3104 27H89.0784ZM101.16 27.18C100.152 27.18 99.2999 27.018 98.6039 26.694C97.9199 26.37 97.3919 25.908 97.0199 25.308C96.6599 24.696 96.4559 23.97 96.4079 23.13C96.3959 22.89 96.3899 22.62 96.3899 22.32C96.3899 22.008 96.3959 21.738 96.4079 21.51C96.4559 20.658 96.6719 19.932 97.0559 19.332C97.4399 18.732 97.9739 18.27 98.6579 17.946C99.3539 17.622 100.188 17.46 101.16 17.46C102.144 17.46 102.978 17.622 103.662 17.946C104.358 18.27 104.898 18.732 105.282 19.332C105.666 19.932 105.882 20.658 105.93 21.51C105.942 21.738 105.948 22.008 105.948 22.32C105.948 22.62 105.942 22.89 105.93 23.13C105.882 23.97 105.672 24.696 105.3 25.308C104.94 25.908 104.412 26.37 103.716 26.694C103.032 27.018 102.18 27.18 101.16 27.18ZM101.16 24.984C101.7 24.984 102.09 24.822 102.33 24.498C102.582 24.174 102.726 23.688 102.762 23.04C102.774 22.86 102.78 22.62 102.78 22.32C102.78 22.02 102.774 21.78 102.762 21.6C102.726 20.964 102.582 20.484 102.33 20.16C102.09 19.824 101.7 19.656 101.16 19.656C100.632 19.656 100.242 19.824 99.9899 20.16C99.7379 20.484 99.5999 20.964 99.5759 21.6C99.5639 21.78 99.5579 22.02 99.5579 22.32C99.5579 22.62 99.5639 22.86 99.5759 23.04C99.5999 23.688 99.7379 24.174 99.9899 24.498C100.242 24.822 100.632 24.984 101.16 24.984ZM108.168 27C108.036 27 107.928 26.958 107.844 26.874C107.76 26.79 107.718 26.682 107.718 26.55V18.09C107.718 17.958 107.76 17.85 107.844 17.766C107.928 17.682 108.036 17.64 108.168 17.64H110.238C110.37 17.64 110.478 17.682 110.562 17.766C110.646 17.85 110.688 17.958 110.688 18.09V18.774C111 18.402 111.408 18.09 111.912 17.838C112.416 17.586 113.01 17.46 113.694 17.46C114.39 17.46 115.002 17.616 115.53 17.928C116.07 18.24 116.49 18.702 116.79 19.314C117.102 19.914 117.258 20.652 117.258 21.528V26.55C117.258 26.682 117.21 26.79 117.114 26.874C117.03 26.958 116.928 27 116.808 27H114.54C114.42 27 114.312 26.958 114.216 26.874C114.132 26.79 114.09 26.682 114.09 26.55V21.636C114.09 21.072 113.952 20.64 113.676 20.34C113.412 20.028 113.016 19.872 112.488 19.872C111.996 19.872 111.6 20.028 111.3 20.34C111.012 20.64 110.868 21.072 110.868 21.636V26.55C110.868 26.682 110.82 26.79 110.724 26.874C110.64 26.958 110.538 27 110.418 27H108.168ZM122.075 27.18C121.427 27.18 120.845 27.06 120.329 26.82C119.825 26.568 119.423 26.232 119.123 25.812C118.823 25.392 118.673 24.918 118.673 24.39C118.673 23.538 119.021 22.866 119.717 22.374C120.413 21.87 121.337 21.528 122.489 21.348L124.739 21.006V20.754C124.739 20.322 124.649 19.992 124.469 19.764C124.289 19.536 123.959 19.422 123.479 19.422C123.143 19.422 122.867 19.488 122.651 19.62C122.447 19.752 122.285 19.932 122.165 20.16C122.057 20.316 121.907 20.394 121.715 20.394H119.699C119.567 20.394 119.465 20.358 119.393 20.286C119.321 20.202 119.291 20.106 119.303 19.998C119.303 19.782 119.381 19.536 119.537 19.26C119.705 18.972 119.957 18.69 120.293 18.414C120.629 18.138 121.061 17.91 121.589 17.73C122.117 17.55 122.753 17.46 123.497 17.46C124.277 17.46 124.943 17.55 125.495 17.73C126.047 17.91 126.491 18.162 126.827 18.486C127.175 18.81 127.433 19.194 127.601 19.638C127.769 20.07 127.853 20.55 127.853 21.078V26.55C127.853 26.682 127.805 26.79 127.709 26.874C127.625 26.958 127.523 27 127.403 27H125.315C125.183 27 125.075 26.958 124.991 26.874C124.907 26.79 124.865 26.682 124.865 26.55V25.92C124.709 26.148 124.499 26.358 124.235 26.55C123.971 26.742 123.659 26.892 123.299 27C122.951 27.12 122.543 27.18 122.075 27.18ZM122.921 25.128C123.269 25.128 123.581 25.056 123.857 24.912C124.145 24.756 124.367 24.522 124.523 24.21C124.691 23.886 124.775 23.484 124.775 23.004V22.752L123.245 23.022C122.681 23.118 122.267 23.268 122.003 23.472C121.751 23.664 121.625 23.892 121.625 24.156C121.625 24.36 121.685 24.534 121.805 24.678C121.925 24.822 122.081 24.936 122.273 25.02C122.465 25.092 122.681 25.128 122.921 25.128Z" fill="#EC5863"/>
<path d="M14.2208 4.98869C15.6455 4.48917 17.2113 5.16285 17.7174 6.49273C18.1048 7.51091 17.7581 8.61769 16.9363 9.30529L17.3804 10.5163L18.0869 11.3316C18.2482 11.5182 18.4928 11.6074 18.738 11.5772C19.3991 11.4959 20.056 11.4928 20.6993 11.5604C20.9173 11.5836 21.1342 11.5116 21.2907 11.3595L21.8005 10.8661L22.1764 9.77185C21.8566 9.33293 21.7483 8.75165 21.9379 8.19933C22.2597 7.26306 23.3107 6.77916 24.2454 7.16256C25.0506 7.49245 25.4887 8.38808 25.253 9.22153C25.1032 9.75239 24.7241 10.15 24.2576 10.3468L23.8415 11.5594L23.9364 12.2276C23.969 12.4573 24.1054 12.6579 24.3046 12.7782C24.9746 13.1847 25.5899 13.6817 26.1301 14.2562C26.3116 14.4496 26.5824 14.5325 26.8427 14.4801L28.1825 14.2111L29.696 13.3717C29.7039 12.6274 30.1017 11.9079 30.8019 11.5195C31.8606 10.9326 33.2014 11.327 33.7655 12.4024C34.2748 13.3725 33.9551 14.592 33.0327 15.1892C32.3124 15.6547 31.4335 15.6377 30.7551 15.2402L29.2325 16.084L28.3823 16.9871C28.1541 17.2294 28.0728 17.572 28.1599 17.8928C28.1604 17.8947 28.1607 17.896 28.1612 17.8979C28.3102 18.4507 28.4006 19.0063 28.438 19.557C28.4597 19.8851 28.6454 20.1803 28.9362 20.3371L30.0459 20.9353L32.2454 21.35C32.6331 21.0124 33.1672 20.8491 33.7129 20.9515C34.6915 21.1363 35.3215 22.1048 35.0707 23.0797C34.8551 23.9145 34.0325 24.4703 33.1723 24.3609C32.5857 24.2863 32.1121 23.9338 31.8578 23.4598L29.6441 23.0427L28.2787 23.2089C28.027 23.24 27.8072 23.3975 27.7045 23.628C27.296 24.5379 26.7323 25.3748 26.0363 26.0973C25.8634 26.2768 25.7985 26.5338 25.8613 26.7744L26.2006 28.0843L27.0384 29.3942C27.9599 29.2563 28.9188 29.6536 29.4507 30.4856C30.1659 31.6034 29.8415 33.0834 28.7285 33.8046C27.6161 34.5257 26.1023 34.2119 25.3732 33.1081C24.8626 32.3353 24.8571 31.382 25.2709 30.6257L24.3815 29.2354L23.288 28.3384C23.126 28.2048 22.9054 28.1695 22.7078 28.2397C22.4885 28.3178 22.2649 28.3876 22.0362 28.4485C20.7935 28.7796 19.5406 28.8223 18.3489 28.6198C18.1742 28.5905 17.9955 28.6402 17.8619 28.7557L17.275 29.2642L16.8386 30.336C17.1339 30.7923 17.2093 31.3783 16.9894 31.919C16.6156 32.8366 15.5392 33.2616 14.6276 32.8274C13.8425 32.4535 13.4548 31.535 13.7365 30.7157C13.916 30.1939 14.3158 29.8178 14.7928 29.6473L15.2762 28.4594L15.1865 27.4161C14.3146 26.8717 13.5388 26.1731 12.9043 25.3474L11.4132 25.4942L10.0175 26.1823C10.0266 27.1158 9.54481 28.0039 8.69917 28.4338C7.50425 29.0407 6.03647 28.5034 5.42116 27.2331C4.80603 25.9634 5.2752 24.4421 6.47011 23.8352C7.36432 23.3809 8.41072 23.5673 9.13878 24.2224L10.455 23.573L11.3685 22.5962C11.4282 22.5323 11.4503 22.4424 11.4276 22.3584L11.4273 22.3571C11.0051 20.7902 11.0482 19.2063 11.4717 17.7506C11.4945 17.6707 11.4774 17.5846 11.4235 17.521L10.6354 16.5826L8.93757 15.6942C8.46991 15.8994 7.91549 15.8988 7.42792 15.6434C6.5471 15.182 6.22971 14.0748 6.75475 13.2157C7.21569 12.4624 8.19746 12.1764 8.99468 12.5626C9.51072 12.8124 9.84361 13.2797 9.94202 13.7966L11.6399 14.6849L12.8484 14.7983C12.9323 14.8064 13.0141 14.7711 13.0674 14.7061C13.6155 14.0312 14.268 13.4354 15.0092 12.9467C15.2126 12.8119 15.339 12.5886 15.3422 12.3453L15.3547 11.2518L14.881 9.96133C13.8541 9.88759 12.9251 9.26768 12.557 8.30058C12.0509 6.97071 12.7959 5.48757 14.2208 4.98869Z" fill="#EC5863"/>
<path d="M25.9898 18.4765C25.0729 15.0736 21.5559 13.0542 18.1342 13.966C14.7125 14.8778 12.6819 18.3755 13.5988 21.7784C14.5156 25.1813 18.0327 27.2007 21.4543 26.2889C24.876 25.3771 26.9066 21.8794 25.9898 18.4765Z" fill="#F58A97"/>
<path d="M20.9484 24.4109C17.8476 25.2372 14.6687 23.6565 13.4172 20.8204C13.4527 21.1391 13.5128 21.4592 13.5988 21.7784C14.5156 25.1814 18.0326 27.2007 21.4543 26.2889C24.8761 25.3771 26.9066 21.8795 25.9898 18.4765C25.9037 18.1573 25.7949 17.8502 25.6653 17.5566C26.0073 20.6349 24.049 23.5847 20.9484 24.4109Z" fill="#F07281"/>
<path d="M11.324 33.496C11.0629 32.5269 10.0613 31.9518 9.08694 32.2115C8.11255 32.4711 7.53429 33.4672 7.79538 34.4362C8.05647 35.4053 9.05803 35.9804 10.0324 35.7207C11.0068 35.4611 11.5851 34.465 11.324 33.496Z" fill="#EB5569"/>
<path d="M34.1105 27.9379C33.9381 27.2978 33.2765 26.918 32.6329 27.0895C31.9893 27.261 31.6074 27.9189 31.7799 28.559C31.9523 29.199 32.6138 29.5789 33.2574 29.4074C33.901 29.2359 34.283 28.5779 34.1105 27.9379Z" fill="#EB5569"/>
<path d="M30.8428 6.00213C30.5888 5.05936 29.6144 4.49988 28.6664 4.75249C27.7184 5.0051 27.1559 5.97416 27.4099 6.91693C27.6639 7.8597 28.6383 8.41918 29.5863 8.16656C30.5343 7.91395 31.0968 6.9449 30.8428 6.00213Z" fill="#EB5569"/>
<path d="M20.1955 22.0477C19.9586 21.1687 19.0502 20.6471 18.1664 20.8826C17.2826 21.1181 16.7581 22.0216 16.9949 22.9005C17.2317 23.7795 18.1402 24.3011 19.024 24.0656C19.9078 23.8301 20.4323 22.9266 20.1955 22.0477Z" fill="#EB5569"/>
<path d="M24.3107 19.5818C24.1495 18.9835 23.5312 18.6285 22.9296 18.7888C22.3281 18.9491 21.9711 19.564 22.1323 20.1623C22.2935 20.7606 22.9118 21.1156 23.5134 20.9553C24.1149 20.795 24.4719 20.18 24.3107 19.5818Z" fill="#EB5569"/>
<path d="M19.9578 17.0961C19.8224 16.5937 19.3032 16.2956 18.798 16.4302C18.2929 16.5648 17.9931 17.0812 18.1285 17.5835C18.2638 18.0859 18.783 18.384 19.2882 18.2494C19.7933 18.1148 20.0931 17.5984 19.9578 17.0961Z" fill="#EB5569"/>
</svg>
